# AST/ASF file generated using VICON BodyLanguage
# -----------------------------------------------
:version 1.10
:name VICON
:units
  mass 1.0
  length 0.45
  angle deg
:documentation
   .ast/.asf automatically generated from VICON data using
   VICON BodyBuilder and BodyLanguage model FoxedUp or BRILLIANT.MOD
:root
   order TX TY TZ RX RY RZ
   axis XYZ
   position 0 0 0  
   orientation 0 0 0 
:bonedata
  begin
     id 1 
     name lhipjoint
     direction 0.570549 -0.739093 0.358072 
     length 2.41801 
     axis 0 0 0  XYZ
  end
  begin
     id 2 
     name lfemur
     direction 0.34202 -0.939693 0  
     length 7.44434  
     axis 0 0 20  XYZ
    dof rx ry rz
    limits (-160.0 20.0)
           (-70.0 70.0)
           (-60.0 70.0)
  end
  begin
     id 3 
     name ltibia
     direction 0.34202 -0.939693 0   
     length 7.60047   
     axis 0 0 20   XYZ
    dof rx
    limits (-10.0 170.0)
  end
  begin
     id 4 
     name lfoot
     direction 0.0909041 -0.249757 0.964032   
     length 2.03437   
     axis -90 7.62852e-016 20   XYZ
    dof rx rz
    limits (-45.0 90.0)
           (-70.0 20.0)
  end
  begin
     id 5 
     name ltoes
     direction 1.53547e-011 -4.2174e-011 1   
     length 1.02054   
     axis -90 7.62852e-016 20   XYZ
    dof rx
    limits (-90.0 20.0)
  end
  begin
     id 6 
     name rhipjoint
     direction -0.558096 -0.746754 0.361784   
     length 2.3932  
     axis 0 0 0  XYZ 
  end
  begin
     id 7 
     name rfemur
     direction -0.34202 -0.939693 0   
     length 7.3886   
     axis 0 0 -20   XYZ
    dof rx ry rz
    limits (-160.0 20.0)
           (-70.0 70.0)
           (-70.0 60.0)
  end
  begin
     id 8 
     name rtibia
     direction -0.34202 -0.939693 0   
     length 7.4839   
     axis 0 0 -20   XYZ
    dof rx
    limits (-10.0 170.0)
 end
 begin
     id 9 
     name rfoot
     direction -0.114619 -0.314914 0.942174   
     length 2.25127  
     axis -90 -7.62852e-016 -20   XYZ
    dof rx rz
    limits (-45.0 90.0)
           (-20.0 70.0)
  end
  begin
     id 10 
     name rtoes
     direction -1.53518e-011 -4.21881e-011 1   
     length 1.11821   
     axis -90 -7.62852e-016 -20   XYZ
    dof rx
    limits (-90.0 20.0)
  end
  begin
     id 11 
     name lowerback
     direction -0.00902269 0.996426 -0.0839821   
     length 2.25052   
     axis 0 0 0   XYZ
    dof rx ry rz
    limits (-20.0 45.0)
           (-30.0 30.0)
           (-30.0 30.0)
  end
  begin
     id 12 
     name upperback
     direction 0.0370973 0.999169 -0.0168941   
     length 2.24876   
     axis 0 0 0   XYZ
    dof rx ry rz
    limits (-20.0 45.0)
           (-30.0 30.0)
           (-30.0 30.0)
  end
  begin
     id 13 
     name thorax
     direction 0.0402726 0.998931 0.0227027   
     length 2.26408   
     axis 0 0 0   XYZ
    dof rx ry rz
    limits (-20.0 45.0)
           (-30.0 30.0)
           (-30.0 30.0)
  end
  begin
     id 14 
     name lowerneck
     direction -0.0733697 0.98508 0.155675   
     length 1.58204   
     axis 0 0 0   XYZ
    dof rx ry rz
    limits (-20.0 45.0)
           (-30.0 30.0)
           (-30.0 30.0)
  end
  begin
     id 15 
     name upperneck
     direction 0.0426554 0.993501 -0.105526   
     length 1.61222   
     axis 0 0 0   XYZ
    dof rx ry rz
    limits (-20.0 45.0)
           (-30.0 30.0)
           (-30.0 30.0)
  end
  begin
     id 16
     name head
     direction 0.020792 0.998384 -0.0528868  
     length 1.61527  
     axis 0 0 0   XYZ
    dof rx ry rz
    limits (-20.0 45.0)
           (-30.0 30.0)
           (-30.0 30.0)
  end
  begin
     id 17 
     name lclavicle
     direction 0.967109 0.155462 -0.201325  
     length 3.59357  
     axis 0 0 0   XYZ
    dof ry rz
    limits (-20.0 10.0)
           (0.0 20.0)
  end
  begin
     id 18 
     name lhumerus
     direction 1 -4.48968e-011 2.38195e-027   
     length 5.38154   
     axis 180 -30 -90   XYZ
    dof rx ry rz
    limits (-60.0 90.0)
           (-90.0 90.0)
           (-90.0 90.0)
  end
  begin
     id 19
     name lradius
     direction 1 -4.48961e-011 4.85371e-027   
     length 3.33312   
     axis 180 -30 -90   XYZ
    dof rx
    limits (-10.0 170.0)
  end
  begin
     id 20
     name lwrist
     direction 1 -4.48961e-011 4.76515e-027   
     length 1.66656   
     axis -3.27502e-015 90 90   XYZ
    dof ry
    limits (-180.0 0.0)
 end
  begin
     id 21 
     name lhand
     direction 1 -4.48951e-011 9.53074e-027   
     length 0.710789   
     axis -6.08098e-015 90 90   XYZ
    dof rx rz
    limits (-90.0 90.0)
           (-45.0 45.0)
  end
  begin
     id 22 
     name lfingers
     direction 1 -4.48953e-011 1.90613e-026   
     length 0.573057   
     axis -1.21619e-014 90 90   XYZ
    dof rx
    limits (0.0 90.0)
  end
  begin
     id 23
     name lthumb
     direction 0.707107 -6.34973e-011 0.707107   
     length 0.822798   
     axis -90 45 -9.86923e-015   XYZ
    dof rx rz
    limits (-45.0 45.0)
           (-45.0 45.0)
  end
  begin
     id 24 
     name rclavicle
     direction -0.9585 0.265289 -0.104398   
     length 3.42039  
     axis 0 0 0   XYZ 
    dof ry rz
    limits (-10.0 20.0)
           (-20.0 0.0)
  end
  begin
     id 25 
     name rhumerus
     direction -1 -4.48977e-011 2.21478e-027  
     length 5.16954   
     axis 180 30 90   XYZ
    dof rx ry rz
    limits (-90.0 60.0)
           (-90.0 90.0)
           (-90.0 90.0)
  end
  begin
     id 26 
     name rradius
     direction -1 -4.48967e-011 5.63677e-027   
     length 3.38287   
     axis 180 30 90   XYZ
    dof rx
    limits (-10.0 170.0)
  end
  begin
     id 27 
     name rwrist
     direction -1 -4.48967e-011 4.76501e-027   
     length 1.69144   
     axis -3.27502e-015 -90 -90   XYZ
    dof ry
    limits (-180.0 0.0)
  end
  begin
     id 28
     name rhand
     direction -1 -4.48902e-011 9.53292e-027   
     length 0.817967   
     axis -6.08098e-015 -90 -90   XYZ
    dof rx rz
    limits (-90.0 90.0)
           (-45.0 45.0)
  end
  begin
     id 29
     name rfingers
     direction -1 -4.49012e-011 1.90561e-026   
     length 0.659466   
     axis -1.21619e-014 -90 -90   XYZ
    dof rx
    limits (0.0 90.0)
  end
  begin
     id 30
     name rthumb
     direction -0.707107 -6.34944e-011 0.707107   
     length 0.946865   
     axis -90 -45 9.86923e-015   XYZ
    dof rx rz
    limits (-45.0 45.0)
           (-45.0 45.0)
  end
:hierarchy
  begin
    root lhipjoint rhipjoint lowerback
    lhipjoint lfemur
    lfemur ltibia
    ltibia lfoot
    lfoot ltoes
    rhipjoint rfemur
    rfemur rtibia
    rtibia rfoot
    rfoot rtoes
    lowerback upperback
    upperback thorax
    thorax lowerneck lclavicle rclavicle
    lowerneck upperneck
    upperneck head
    lclavicle lhumerus
    lhumerus lradius
    lradius lwrist
    lwrist lhand lthumb
    lhand lfingers
    rclavicle rhumerus
    rhumerus rradius
    rradius rwrist
    rwrist rhand rthumb
    rhand rfingers
  end

#!OML:ASF F:\twosubjects\two\wednesday\Session 1\Justin1.ASF
:FULLY-SPECIFIED
:DEGREES
260
root 14.2368 16.441 -1.01128 -287.215 -73.4518 -427.67
lowerback 16.6063 3.87921 -3.58307
upperback 1.54079 4.31333 -0.442426
thorax -7.88012 2.14282 0.555424
lowerneck -5.96551 -17.5471 -19.6028
upperneck 1.8005 -25.073 28.3911
head 8.02014 -11.9744 8.99169
rclavicle -9.54166e-015 6.20208e-014
rhumerus 20.3965 -62.8289 -50.7926
rradius 31.4709
rwrist -61.1522
rhand -6.16437 -18.8874
rfingers 7.12502
rthumb 19.6743 -47.9118
lclavicle -9.54166e-015 6.20208e-014
lhumerus -23.0414 27.4383 17.3753
lradius 21.2459
lwrist -13.8436
lhand -3.69334 26.5076
lfingers 7.12502
lthumb 22.0484 55.2708
rfemur -26.887 1.05177 27.3302
rtibia 47.0176
rfoot -23.1272 3.15307
rtoes -7.00133
lfemur -39.1698 -0.265341 11.5193
ltibia 71.743
lfoot -22.6027 11.528
ltoes -6.04581
261
root 14.0666 16.4571 -0.731852 -287.18 -74.8695 -427.552
lowerback 16.7705 3.80464 -4.54091
upperback 1.63022 3.99897 -0.703639
thorax -7.90834 2.01245 0.88171
lowerneck -5.92217 -17.5557 -19.3741
upperneck 2.01355 -25.0766 27.9831
head 7.9734 -11.9734 8.82824
rclavicle 2.14687e-014 5.08889e-014
rhumerus 23.1352 -64.6553 -53.2551
rradius 30.7534
rwrist -58.9237
rhand -7.63402 -16.5548
rfingers 7.12502
rthumb 18.261 -45.7176
lclavicle 2.14687e-014 5.08889e-014
lhumerus -22.5434 27.8593 17.8188
lradius 20.9808
lwrist -14.5606
lhand -3.41278 26.2762
lfingers 7.12502
lthumb 22.3178 55.0073
rfemur -26.0336 1.28876 24.9012
rtibia 46.6747
rfoot -23.4064 3.32785
rtoes -6.25085
lfemur -38.8445 -1.60655 11.182
ltibia 68.3242
lfoot -20.8744 10.6846
ltoes -11.3958
262
root 13.8871 16.4538 -0.466561 -285.79 -75.9561 -429.089
lowerback 16.9745 3.80291 -5.1142
upperback 1.79914 3.84925 -0.917056
thorax -7.85291 1.94537 1.00606
lowerneck -5.79228 -17.4711 -19.0273
upperneck 2.18177 -24.9742 27.6315
head 7.86811 -11.9323 8.70362
rclavicle 1.98785e-014 -6.20208e-014
rhumerus 23.9119 -65.6414 -53.8776
rradius 30.4395
rwrist -58.0077
rhand -7.37202 -16.5267
rfingers 7.12502
rthumb 18.513 -45.6657
lclavicle 1.98785e-014 -6.20208e-014
lhumerus -21.9172 27.4887 18.2039
lradius 20.8247
lwrist -14.7585
lhand -3.44061 25.8972
lfingers 7.12502
lthumb 22.291 54.6315
rfemur -25.0486 1.83556 23.1174
rtibia 46.5203
rfoot -23.6881 2.95622
rtoes -7.53728
lfemur -37.9269 -2.82525 11.3797
ltibia 64.7753
lfoot -19.1276 9.01212
ltoes -14.5371
263
root 13.7015 16.4371 -0.191291 -281.451 -76.4984 -433.211
lowerback 16.6289 3.74467 -4.9896
upperback 1.75841 3.81206 -1.01521
thorax -7.68917 1.92255 0.858098
lowerneck -5.22616 -17.3414 -18.9763
upperneck 2.20646 -24.8378 27.4076
head 7.69747 -11.9158 8.70755
rclavicle 2.38542e-014 -7.15625e-014
rhumerus 23.3854 -65.5572 -53.1268
rradius 30.2504
rwrist -58.2464
rhand -19.5598 -4.85695
rfingers 7.12502
rthumb 6.76478 -34.7289
lclavicle 2.38542e-014 -7.15625e-014
lhumerus -21.6569 26.2895 18.4101
lradius 20.9385
lwrist -14.3174
lhand -3.71654 25.6057
lfingers 7.12502
lthumb 22.0261 54.3714
rfemur -24.7307 2.78048 22.147
rtibia 46.5956
rfoot -23.7168 1.81919
rtoes -12.1702
lfemur -36.9895 -3.84159 12.3198
ltibia 61.2272
lfoot -17.7767 7.49928
ltoes -17.9719
264
root 13.5038 16.4013 0.0855109 -276.584 -76.61 -437.867
lowerback 16.1547 3.65453 -4.4842
upperback 1.77688 3.83609 -0.843295
thorax -7.38712 1.92251 0.780688
lowerneck -4.90494 -17.3536 -19.5237
upperneck 2.4317 -24.8699 27.249
head 7.7639 -11.9473 8.74988
rclavicle 3.97569e-014 -5.725e-014
rhumerus 25.8836 -66.5302 -54.9632
rradius 29.5321
rwrist -56.8862
rhand -14.696 -9.07412
rfingers 7.12502
rthumb 11.458 -38.741
lclavicle 3.97569e-014 -5.725e-014
lhumerus -21.4278 26.0452 18.6726
lradius 20.8459
lwrist -14.7041
lhand -3.93848 25.3617
lfingers 7.12502
lthumb 21.813 54.1524
rfemur -24.5858 3.31242 21.6652
rtibia 47.0494
rfoot -23.4853 0.45538
rtoes -17.563
lfemur -35.8246 -4.86779 13.5771
ltibia 57.9496
lfoot -17.6066 6.42251
ltoes -26.3457
265
root 13.2843 16.3754 0.350323 -275.408 -77.9748 -439.335
lowerback 16.1365 3.46376 -5.17226
upperback 1.95904 3.44528 -1.01169
thorax -7.1908 1.74113 1.08456
lowerneck -4.66647 -17.3059 -20.2987
upperneck 2.94254 -24.8659 27.1453
head 7.96718 -11.9446 8.84561
rclavicle 8.34896e-014 -6.20208e-014
rhumerus 28.435 -67.2442 -56.9617
rradius 29.0296
rwrist -55.7644
rhand -8.38774 -14.4186
rfingers 7.12502
rthumb 17.5357 -43.6478
lclavicle 8.34896e-014 -6.20208e-014
lhumerus -21.3244 26.4653 18.648
lradius 20.7232
lwrist -15.8621
lhand -3.50173 25.2099
lfingers 7.12502
lthumb 22.2324 53.9512
rfemur -23.8986 2.26236 19.7779
rtibia 48.0165
rfoot -23.3483 -0.480477
rtoes -20.8958
lfemur -34.1331 -6.73846 12.9934
ltibia 54.9833
lfoot -19.1682 5.29449
ltoes -32.7926
266
root 13.0922 16.3263 0.623777 -267.778 -78.723 -446.917
lowerback 15.9992 3.50849 -5.22758
upperback 1.85291 3.48803 -1.17612
thorax -7.22538 1.76339 0.933478
lowerneck -4.67528 -17.2239 -20.5696
upperneck 3.60417 -24.7655 26.6335
head 8.09841 -11.8765 8.74053
rclavicle -1.98785e-014 5.40694e-014
rhumerus 30.1665 -67.5945 -58.3141
rradius 28.6619
rwrist -54.9472
rhand -5.17765 -16.8153
rfingers 7.12502
rthumb 20.6227 -45.7397
lclavicle -1.98785e-014 5.40694e-014
lhumerus -21.2718 27.1018 18.3675
lradius 20.7345
lwrist -17.016
lhand -2.94074 25.1813
lfingers 7.12502
lthumb 22.7708 53.8575
rfemur -24.329 2.03018 18.6491
rtibia 49.6456
rfoot -22.8457 -1.34872
rtoes -21.3318
lfemur -32.343 -7.56042 13.0504
ltibia 52.8054
lfoot -21.6054 3.26962
ltoes -34.4205
267
root 12.8784 16.2936 0.878094 -261.153 -79.9409 -454.007
lowerback 16.1877 3.5851 -5.75443
upperback 2.02612 3.43762 -1.56267
thorax -7.14709 1.73467 0.82457
lowerneck -4.94507 -17.29 -20.3214
upperneck 3.94438 -24.7943 26.072
head 8.12745 -11.8613 8.4896
rclavicle 8.74653e-015 1.27222e-014
rhumerus 32.3357 -68.3631 -59.9865
rradius 28.084
rwrist -53.771
rhand -4.99633 -16.9444
rfingers 7.12502
rthumb 20.7969 -45.8498
lclavicle 8.74653e-015 1.27222e-014
lhumerus -20.7926 27.6443 18.2316
lradius 20.7407
lwrist -17.5999
lhand -3.04516 25.1421
lfingers 7.12502
lthumb 22.6706 53.8305
rfemur -24.306 1.29922 16.8425
rtibia 51.7745
rfoot -22.408 -1.74088
rtoes -19.2802
lfemur -30.1866 -8.92023 12.0659
ltibia 51.2924
lfoot -23.5822 -0.259552
ltoes -36.1558
268
root 12.6868 16.2304 1.12655 -250.551 -79.3331 -464.651
lowerback 16.1482 3.78532 -5.07679
upperback 2.01711 3.82655 -1.52411
thorax -7.11644 1.90485 0.399974
lowerneck -5.24206 -17.3926 -20.2653
upperneck 4.03198 -24.8609 25.8139
head 8.16938 -11.8694 8.35298
rclavicle -6.59965e-014 4.6118e-014
rhumerus 34.6993 -68.8528 -61.6657
rradius 27.5733
rwrist -52.9643
rhand -5.51486 -16.983
rfingers 7.12502
rthumb 20.2987 -45.9423
lclavicle -6.59965e-014 4.6118e-014
lhumerus -20.3929 27.3185 18.2144
lradius 20.9408
lwrist -17.1605
lhand -2.53919 24.8588
lfingers 7.12502
lthumb 23.1561 53.487
rfemur -25.3907 1.35998 16.6789
rtibia 54.3308
rfoot -21.3079 -2.32849
rtoes -17.156
lfemur -27.8511 -8.43597 12.2936
ltibia 50.7246
lfoot -25.9415 -3.26517
ltoes -41.7154
269
root 12.5008 16.19 1.38329 -239.931 -78.9817 -475.314
lowerback 16.3212 3.92321 -5.03965
upperback 1.94042 3.99714 -1.53046
thorax -7.29984 1.98775 0.319299
lowerneck -5.55163 -17.3556 -20.536
upperneck 4.25095 -24.7037 25.4867
head 8.23455 -11.7694 8.29383
rclavicle -7.15625e-015 -6.67916e-014
rhumerus 39.1103 -69.3535 -65.3626
rradius 26.9667
rwrist -51.1838
rhand -5.70897 -16.7708
rfingers 7.12502
rthumb 20.1121 -45.7498
lclavicle -7.15625e-015 -6.67916e-014
lhumerus -20.6509 26.6304 17.9553
lradius 21.404
lwrist -16.2667
lhand -1.91469 24.6472
lfingers 7.12502
lthumb 23.7552 53.1989
rfemur -26.7391 1.06861 15.7732
rtibia 57.1439
rfoot -19.5813 -2.96302
rtoes -15.9637
lfemur -25.806 -7.86849 11.4221
ltibia 50.541
lfoot -28.4281 -6.94962
ltoes -40.9589
270
root 12.3105 16.1751 1.6317 -228.957 -78.509 -486.422
lowerback 16.5876 4.00204 -5.31222
upperback 1.85451 4.00915 -1.68789
thorax -7.5478 1.99877 0.28002
lowerneck -5.84668 -17.2 -20.5499
upperneck 4.33227 -24.3672 25.1143
head 8.1705 -11.5927 8.23147
rclavicle 6.67916e-014 -6.20208e-014
rhumerus 43.0819 -69.4019 -68.9073
rradius 26.4509
rwrist -49.463
rhand -7.4146 -15.3757
rfingers 7.12502
rthumb 18.472 -44.5186
lclavicle 6.67916e-014 -6.20208e-014
lhumerus -21.2943 25.8411 17.2727
lradius 21.8935
lwrist -14.9308
lhand -1.91347 24.8181
lfingers 7.12502
lthumb 23.7564 53.3696
rfemur -28.2646 0.908008 14.5348
rtibia 60.0794
rfoot -17.2582 -3.97851
rtoes -16.2312
lfemur -23.9384 -6.93752 9.85255
ltibia 50.8056
lfoot -30.4042 -10.6797
ltoes -34.1965
271
root 12.1256 16.1426 1.86123 -218.49 -77.6416 -497.036
lowerback 17.0685 4.18095 -5.70447
upperback 1.72267 4.08724 -2.01564
thorax -7.96405 2.04165 0.0916512
lowerneck -6.00994 -17.0447 -20.1607
upperneck 3.98461 -24.0391 24.8775
head 7.92209 -11.4417 8.16654
rclavicle -2.70347e-014 2.22639e-014
rhumerus 42.3781 -68.5869 -67.8296
rradius 26.23
rwrist -49.9117
rhand -7.99811 -15.0432
rfingers 7.12502
rthumb 17.9107 -44.2385
lclavicle -2.70347e-014 2.22639e-014
lhumerus -21.6503 25.247 16.4581
lradius 22.19
lwrist -13.8257
lhand -1.93641 25.0651
lfingers 7.12502
lthumb 23.7344 53.6195
rfemur -30.2045 0.990086 13.2444
rtibia 63.157
rfoot -14.3977 -5.11381
rtoes -14.6924
lfemur -22.2391 -4.49254 7.59536
ltibia 51.0913
lfoot -32.9314 -8.38424
ltoes -40.7553
272
root 11.9483 16.1276 2.07133 -210.334 -76.5187 -505.345
lowerback 17.7779 4.47599 -6.02578
upperback 1.69657 4.2938 -2.389
thorax -8.38946 2.13603 -0.232644
lowerneck -6.20314 -17.053 -19.7239
upperneck 3.26009 -23.9445 25.0141
head 7.67227 -11.4076 8.15765
rclavicle 2.22639e-014 3.33958e-014
rhumerus 39.6442 -67.8271 -64.5218
rradius 26.1479
rwrist -51.4717
rhand -8.11228 -15.1433
rfingers 7.12502
rthumb 17.8008 -44.3486
lclavicle 2.22639e-014 3.33958e-014
lhumerus -21.3338 26.1729 15.7784
lradius 22.2533
lwrist -14.2922
lhand -2.07189 25.2012
lfingers 7.12502
lthumb 23.6044 53.7723
rfemur -32.2188 1.1022 12.1785
rtibia 66.1597
rfoot -11.3114 -6.30286
rtoes -9.43026
lfemur -20.9877 -2.78412 5.54472
ltibia 51.6475
lfoot -33.4159 -8.25382
ltoes -39.2046
273
root 11.7711 16.1438 2.25816 -202.091 -75.5917 -513.745
lowerback 18.3807 4.80992 -7.07857
upperback 1.86349 4.3925 -2.7868
thorax -8.59358 2.19021 -0.13832
lowerneck -6.68155 -17.1499 -19.567
upperneck 2.42152 -23.9464 25.5053
head 7.55448 -11.4016 8.25549
rclavicle 4.92986e-014 -7.95139e-015
rhumerus 36.7339 -66.9339 -60.9872
rradius 26.5291
rwrist -53.5333
rhand -8.10621 -15.8265
rfingers 7.12502
rthumb 17.8066 -45.0313
lclavicle 4.92986e-014 -7.95139e-015
lhumerus -20.9735 27.4783 15.3241
lradius 22.3783
lwrist -14.5091
lhand -2.52703 25.6784
lfingers 7.12502
lthumb 23.1678 54.3051
rfemur -34.241 0.76973 10.8001
rtibia 68.9287
rfoot -8.04925 -7.25557
rtoes -5.27314
lfemur -20.005 -0.840931 2.99469
ltibia 52.1965
lfoot -33.229 -8.41907
ltoes -36.9176
